<?xml version="1.0" standalone="no"?>
<!DOCTYPE svg PUBLIC "-//W3C//DTD SVG 20010904//EN"
 "http://www.w3.org/TR/2001/REC-SVG-20010904/DTD/svg10.dtd">
<svg version="1.0" xmlns="http://www.w3.org/2000/svg"
 width="1024.000000pt" height="1024.000000pt" viewBox="0 0 1024.000000 1024.000000"
 preserveAspectRatio="xMidYMid meet">
<metadata>
Created by potrace 1.11, written by Peter Selinger 2001-2013
</metadata>
<g transform="translate(0.000000,1024.000000) scale(0.100000,-0.100000)"
fill="#000000" stroke="none">
<path d="M3014 8493 c-15 -27 -42 -73 -60 -103 -17 -30 -41 -71 -52 -90 -32
-57 -191 -334 -202 -350 -8 -13 -114 -197 -201 -349 -15 -25 -151 -262 -304
-526 -152 -264 -329 -570 -392 -680 -64 -110 -139 -240 -168 -290 -48 -82
-405 -700 -582 -1008 -40 -70 -73 -129 -73 -132 0 -2 37 -68 83 -147 94 -162
194 -335 597 -1033 155 -269 291 -502 301 -517 10 -15 19 -30 19 -33 0 -3 32
-60 71 -128 40 -67 83 -142 97 -167 14 -25 43 -73 64 -108 21 -34 38 -65 38
-67 0 -3 11 -23 25 -45 14 -22 38 -64 54 -92 16 -29 93 -163 171 -298 78 -135
156 -270 173 -300 16 -30 48 -83 69 -118 21 -34 38 -64 38 -67 0 -3 16 -29 35
-59 19 -30 35 -57 35 -60 0 -3 21 -40 46 -83 25 -43 49 -85 54 -93 5 -8 28
-47 51 -87 l42 -72 2063 0 2063 1 197 341 c261 451 381 660 559 967 81 140
155 269 165 285 9 17 144 251 300 520 155 270 290 504 300 520 9 17 51 89 92
160 41 72 119 207 173 300 54 94 101 175 105 180 4 6 18 30 32 55 14 25 51 89
82 144 31 54 55 105 52 113 -3 8 -48 87 -100 176 -51 89 -103 178 -113 197
-19 33 -131 227 -333 575 -126 217 -129 224 -158 275 -13 25 -28 50 -32 55 -4
6 -28 46 -52 90 -25 44 -84 147 -132 228 -47 82 -97 167 -110 190 -13 23 -32
58 -43 77 -12 19 -88 152 -171 295 -82 143 -169 294 -194 335 -24 41 -47 82
-51 90 -4 8 -17 31 -28 50 -12 19 -107 184 -212 365 -104 182 -221 383 -259
448 l-69 117 -2064 0 -2064 0 -27 -47z m3938 -380 c8 -16 65 -115 126 -220 62
-106 112 -197 112 -203 0 -5 5 -10 10 -10 6 0 10 -4 10 -10 0 -5 20 -42 44
-82 24 -40 164 -282 311 -538 147 -256 290 -503 318 -550 28 -47 64 -110 80
-140 17 -30 48 -84 69 -119 21 -34 38 -64 38 -66 0 -2 42 -74 93 -162 51 -87
96 -165 100 -173 4 -8 11 -22 17 -30 6 -8 118 -201 249 -429 l238 -414 -105
-181 c-57 -100 -113 -196 -123 -214 -62 -108 -104 -181 -171 -297 -207 -358
-576 -996 -696 -1205 -74 -129 -166 -289 -205 -355 -69 -118 -89 -153 -125
-218 -32 -56 -246 -426 -328 -567 l-79 -135 -1820 1 c-1001 1 -1825 2 -1832 3
-9 1 -64 90 -195 321 -11 19 -53 91 -93 160 -40 69 -84 145 -97 170 -14 25
-64 112 -112 193 -47 82 -97 167 -110 190 -13 23 -74 130 -136 237 -63 107
-120 206 -127 220 -8 14 -25 43 -39 65 -13 22 -27 47 -31 55 -3 8 -14 26 -23
40 -9 14 -31 50 -47 80 -17 30 -173 303 -348 605 -175 303 -326 564 -335 580
-10 17 -45 78 -79 136 -33 58 -61 111 -61 118 0 6 11 29 25 51 14 22 25 42 25
45 0 3 16 31 35 61 19 30 35 57 35 59 0 3 11 22 23 43 20 31 192 327 286 492
153 268 187 325 193 328 5 2 8 7 8 12 0 5 23 48 51 97 28 48 61 106 74 128 12
22 79 139 150 260 70 121 163 283 207 360 45 77 91 157 104 177 13 21 24 40
24 42 0 3 26 49 58 103 33 54 85 145 118 203 32 58 62 107 66 108 4 2 8 8 8
13 0 5 18 39 40 75 22 36 40 67 40 69 0 2 75 132 202 350 16 28 34 60 40 73
l11 22 1833 0 1833 0 13 -27z"/>
<path d="M4967 7384 c-1 -1 -36 -5 -77 -8 -373 -33 -734 -150 -1051 -341 -182
-110 -292 -198 -464 -370 -61 -60 -126 -130 -145 -154 -19 -24 -39 -48 -45
-55 -5 -6 -28 -36 -50 -66 -156 -214 -289 -479 -361 -720 -17 -57 -53 -201
-58 -230 -3 -19 -10 -59 -15 -88 -33 -168 -36 -579 -6 -752 31 -185 41 -228
90 -381 53 -169 163 -411 226 -501 11 -14 19 -29 19 -32 0 -5 97 -149 121
-180 326 -417 715 -695 1197 -855 81 -27 114 -36 207 -57 57 -13 124 -26 155
-30 19 -3 46 -7 60 -9 126 -24 511 -24 650 0 32 5 137 24 174 30 245 46 554
170 788 318 636 401 1050 1067 1125 1808 10 92 10 448 0 512 -4 26 -10 68 -13
95 -3 26 -13 79 -21 117 -8 39 -16 80 -19 91 -24 120 -108 353 -181 498 -135
272 -260 445 -472 656 -357 355 -819 593 -1301 670 -41 7 -83 14 -93 16 -60
11 -430 26 -440 18z m268 -408 c92 -6 204 -21 273 -37 26 -6 58 -13 71 -15 13
-3 67 -19 120 -36 744 -237 1278 -863 1397 -1638 24 -154 23 -473 -1 -590 -2
-13 -7 -42 -11 -64 -21 -141 -88 -344 -169 -511 -341 -704 -1044 -1148 -1815
-1147 -182 1 -280 11 -450 49 -505 111 -971 437 -1256 879 -112 174 -236 465
-269 634 -2 8 -10 49 -18 90 -9 41 -19 100 -22 130 -10 81 -13 372 -5 428 5
26 11 74 14 107 4 33 8 67 11 75 2 8 6 26 9 40 62 315 231 655 455 914 259
300 644 540 1010 632 137 34 252 52 381 60 52 4 96 7 97 8 2 2 69 -1 178 -8z"/>
</g>
</svg>
