<?xml version="1.0" encoding="UTF-8" standalone="no"?>
<!-- Created with Inkscape (http://www.inkscape.org/) -->

<svg
   xmlns:dc="http://purl.org/dc/elements/1.1/"
   xmlns:cc="http://creativecommons.org/ns#"
   xmlns:rdf="http://www.w3.org/1999/02/22-rdf-syntax-ns#"
   xmlns:svg="http://www.w3.org/2000/svg"
   xmlns="http://www.w3.org/2000/svg"
   xmlns:sodipodi="http://sodipodi.sourceforge.net/DTD/sodipodi-0.dtd"
   xmlns:inkscape="http://www.inkscape.org/namespaces/inkscape"
   width="50.799999mm"
   height="128.4993mm"
   viewBox="0 0 50.799999 128.4993"
   version="1.1"
   id="svg48736"
   inkscape:version="0.92.2 5c3e80d, 2017-08-06"
   sodipodi:docname="PhysicalSync.svg">
  <defs
     id="defs48730">
    <style
       id="style307">.cls-1{fill:#ff2935;}</style>
  </defs>
  <sodipodi:namedview
     id="base"
     pagecolor="#ffffff"
     bordercolor="#666666"
     borderopacity="1.0"
     inkscape:pageopacity="0.0"
     inkscape:pageshadow="2"
     inkscape:zoom="3.959798"
     inkscape:cx="104.90094"
     inkscape:cy="278.14346"
     inkscape:document-units="mm"
     inkscape:current-layer="layer1"
     showgrid="false"
     fit-margin-top="0"
     fit-margin-left="0"
     fit-margin-right="0"
     fit-margin-bottom="0"
     inkscape:snap-bbox="true"
     inkscape:bbox-nodes="true"
     inkscape:window-width="1350"
     inkscape:window-height="797"
     inkscape:window-x="7"
     inkscape:window-y="12"
     inkscape:window-maximized="0"
     inkscape:snap-page="true"
     showguides="false"
     inkscape:guide-bbox="true">
    <sodipodi:guide
       position="31.117339,86.432725"
       orientation="0,1"
       id="guide1190"
       inkscape:locked="false" />
  </sodipodi:namedview>
  <metadata
     id="metadata48733">
    <rdf:RDF>
      <cc:Work
         rdf:about="">
        <dc:format>image/svg+xml</dc:format>
        <dc:type
           rdf:resource="http://purl.org/dc/dcmitype/StillImage" />
        <dc:title />
      </cc:Work>
    </rdf:RDF>
  </metadata>
  <g
     inkscape:label="Layer 1"
     inkscape:groupmode="layer"
     id="layer1"
     transform="translate(-339.725,84.74965)"
     style="display:inline">
    <path
       inkscape:connector-curvature="0"
       id="path40442"
       d="m 339.8187,-84.657321 h 50.61397 V 43.65595 H 339.8187 Z m 0,0"
       style="fill:#e6e6e6;fill-opacity:1;fill-rule:nonzero;stroke:none;stroke-width:0.35277775" />
    <path
       inkscape:connector-curvature="0"
       id="path40444"
       d="m 390.525,-84.74965 h -50.8 v 128.4993 h 50.8 z M 390.33896,43.56224 H 339.91241 V -84.563613 h 50.42655 z m 0,0"
       style="fill:#ababab;fill-opacity:1;fill-rule:nonzero;stroke:none;stroke-width:0.35277775" />
    <path
       inkscape:connector-curvature="0"
       id="path44538"
       d="m 388.23745,-44.889892 c 0,-0.54984 -0.45062,-0.99908 -1.00045,-0.99908 h -20.33984 c -0.54984,0 -1.00046,0.44924 -1.00046,0.99908 v 83.61109 c 0,0.54983 0.45062,0.99908 1.00046,0.99908 H 387.237 c 0.54983,0 1.00045,-0.44925 1.00045,-0.99908 z"
       style="fill:#000000;fill-opacity:1;fill-rule:nonzero;stroke:none;stroke-width:0.35277775"
       sodipodi:nodetypes="sssssssss" />
    <path
       inkscape:connector-curvature="0"
       style="fill:#ffd714;fill-opacity:1;stroke:none;stroke-width:0.35277775"
       d=""
       id="path47866" />
    <path
       inkscape:connector-curvature="0"
       style="fill:#ffd714;fill-opacity:1;stroke:none;stroke-width:0.35277775"
       d=""
       id="path47814" />
    <path
       inkscape:connector-curvature="0"
       style="fill:#ffd714;fill-opacity:1;stroke:none;stroke-width:0.35277775"
       d=""
       id="path47770" />
    <path
       inkscape:connector-curvature="0"
       style="fill:#ffd714;fill-opacity:1;stroke:none;stroke-width:0.35277775"
       d=""
       id="path47726" />
    <path
       inkscape:connector-curvature="0"
       style="fill:#ffd714;fill-opacity:1;stroke:none;stroke-width:0.35277775"
       d=""
       id="path47690" />
    <path
       inkscape:connector-curvature="0"
       style="fill:#ffd714;fill-opacity:1;stroke:none;stroke-width:0.35277775"
       d=""
       id="path47662" />
    <path
       inkscape:connector-curvature="0"
       style="fill:#ffd714;fill-opacity:1;stroke:none;stroke-width:0.35277775"
       d=""
       id="path47630" />
    <g
       id="Rouge"
       transform="matrix(0.01400578,0,0,0.01400578,351.90537,-84.099608)">
      <path
         id="path313"
         d="M 840.7,174 921.91,314.65 840.7,455.3 H 678.3 L 597.09,314.65 678.3,174 h 162.4 m 11.55,-20 H 666.75 L 574,314.65 666.75,475.3 h 185.5 L 945,314.65 Z"
         class="cls-1"
         inkscape:connector-curvature="0"
         style="fill:#ff2935;stroke-width:6.22343397;stroke-miterlimit:4;stroke-dasharray:none" />
      <path
         id="path315"
         d="m 759,226 a 89,89 0 1 1 -89,89 89.11,89.11 0 0 1 89,-89 m 0,-20 A 109,109 0 1 0 868,315 109,109 0 0 0 759,206 Z"
         class="cls-1"
         inkscape:connector-curvature="0"
         style="fill:#ff2935;stroke-width:6.22343397;stroke-miterlimit:4;stroke-dasharray:none" />
      <path
         id="path317"
         d="m 495.17,163.29 v 301.49 a 9.45,9.45 0 0 1 -2.9,6.92 10.79,10.79 0 0 1 -14.72,0 9.44,9.44 0 0 1 -2.89,-6.92 V 189.6 l -136,150.3 v 0.45 c -0.3,0 -0.45,0.08 -0.45,0.22 0,0.14 -0.15,0.23 -0.45,0.23 v 0.44 c -0.3,0 -0.74,0.3 -1.33,0.89 -0.3,0 -0.45,0.08 -0.45,0.23 0,0.15 -0.15,0.22 -0.45,0.22 -0.3,0 -0.44,0.08 -0.44,0.22 0,0.14 -0.16,0.23 -0.45,0.23 h -0.89 a 1.28,1.28 0 0 1 -0.89,0.44 h -3.12 a 1.28,1.28 0 0 1 -0.9,-0.44 h -0.89 c -0.3,0 -0.44,-0.07 -0.44,-0.23 0,-0.16 -0.16,-0.22 -0.45,-0.22 -0.29,0 -0.45,-0.07 -0.45,-0.22 0,-0.15 -0.15,-0.23 -0.44,-0.23 -0.6,-0.59 -1.05,-0.89 -1.34,-0.89 v -0.44 c -0.3,0 -0.45,-0.07 -0.45,-0.23 0,-0.16 -0.15,-0.22 -0.44,-0.22 v -0.45 l -136,-150.3 v 275.18 a 9.45,9.45 0 0 1 -2.9,6.92 10.79,10.79 0 0 1 -14.72,0 9.42,9.42 0 0 1 -2.9,-6.92 V 162.84 a 7.92,7.92 0 0 1 0.89,-3.57 c 0.3,0 0.45,-0.29 0.45,-0.89 a 28,28 0 0 0 0.89,-0.89 L 170,157 l 0.89,-0.89 0.45,-0.44 h 0.44 c 0,-0.3 0.07,-0.45 0.22,-0.45 0.15,0 0.23,-0.15 0.23,-0.45 h 0.44 l 0.45,-0.44 h 0.89 a 0.4,0.4 0 0 0 0.45,-0.45 h 1.78 v -0.44 h 1.79 a 4.36,4.36 0 0 0 2,0.44 2.81,2.81 0 0 1 2,0.89 1.34,1.34 0 0 1 0.89,0.45 1.3,1.3 0 0 1 0.89,0.45 l 0.45,0.44 h 0.45 c 0,0.3 0.07,0.45 0.22,0.45 0.15,0 0.22,0.15 0.22,0.44 L 331,318.94 477.33,157 c 0,-0.29 0.07,-0.44 0.22,-0.44 0.15,0 0.23,-0.15 0.23,-0.45 0.29,0 0.44,-0.07 0.44,-0.22 0,-0.15 0.15,-0.22 0.45,-0.22 a 1.26,1.26 0 0 1 0.89,-0.45 1.3,1.3 0 0 1 0.89,-0.45 v -0.44 a 4,4 0 0 1 1.79,-0.45 3.93,3.93 0 0 0 1.78,-0.44 h 2.23 v 0.44 H 488 v 0.45 h 1.33 c 0,0.3 0.15,0.44 0.45,0.44 h 0.45 c 0,0.3 0.06,0.45 0.22,0.45 0.16,0 0.22,0.15 0.22,0.45 a 1.32,1.32 0 0 1 0.89,0.44 l 0.9,0.89 0.44,0.45 v 0.45 c 0.29,0 0.45,0.07 0.45,0.22 0,0.15 0.14,0.22 0.44,0.22 0,0.6 0.15,0.89 0.45,0.89 a 8,8 0 0 1 0.89,3.57 z"
         class="cls-1"
         inkscape:connector-curvature="0"
         style="fill:#ff2935;stroke-width:6.22343397;stroke-miterlimit:4;stroke-dasharray:none" />
      <path
         id="path319"
         d="m 1039.48,473.8 a 9.8,9.8 0 0 1 -7.15,-3.13 9.31,9.31 0 0 1 -3.13,-6.69 V 161.6 a 10.7,10.7 0 0 1 10.28,-10.26 l 76.4,1.34 a 164.08,164.08 0 0 1 32.17,3.12 178.57,178.57 0 0 1 31.27,9.36 186.21,186.21 0 0 1 27.26,14.72 151.69,151.69 0 0 1 24.13,19.63 157,157 0 0 1 34.85,175.28 149.2,149.2 0 0 1 -34.85,50.84 151.08,151.08 0 0 1 -24.13,19.62 184.33,184.33 0 0 1 -27.26,14.75 177.76,177.76 0 0 1 -31.27,9.37 164.08,164.08 0 0 1 -32.17,3.12 z m 10.24,-302.39 v 281.87 l 66.31,-0.89 a 140,140 0 0 0 55.19,-10.94 142.9,142.9 0 0 0 75.65,-74.6 133,133 0 0 0 11.13,-54.28 134.62,134.62 0 0 0 -11.13,-54.5 142.2,142.2 0 0 0 -75.65,-74.82 A 139.83,139.83 0 0 0 1116,172.3 Z"
         class="cls-1"
         inkscape:connector-curvature="0"
         style="fill:#ff2935;stroke-width:11.5263176;stroke-miterlimit:4;stroke-dasharray:none" />
      <path
         id="path321"
         d="m 1385.34,474.69 a 9.32,9.32 0 0 1 -7.21,-3.12 9.8,9.8 0 0 1 -2.83,-6.69 v -301.5 a 9.8,9.8 0 0 1 2.83,-6.69 9.32,9.32 0 0 1 7.21,-3.12 10.17,10.17 0 0 1 10.47,9.81 v 301.5 a 10.17,10.17 0 0 1 -10.47,9.81 z"
         class="cls-1"
         inkscape:connector-curvature="0"
         style="fill:#ff2935;stroke-width:6.22343397;stroke-miterlimit:4;stroke-dasharray:none" />
      <path
         id="path323"
         d="m 1743.1,155.7 a 10.26,10.26 0 0 1 4.24,6.47 9.29,9.29 0 0 1 -2,7.36 l -119.09,160.56 v 135.14 a 9.31,9.31 0 0 1 -3.19,6.69 9.72,9.72 0 0 1 -6.84,3.12 9.93,9.93 0 0 1 -7.53,-3.12 9.57,9.57 0 0 1 -3,-6.69 V 330.09 L 1486.2,169.53 a 11.09,11.09 0 0 1 -1.78,-7.36 9.32,9.32 0 0 1 4,-6.47 12.06,12.06 0 0 1 7.81,-1.78 8.33,8.33 0 0 1 6.47,4 l 113.51,152.53 112.61,-152.53 a 8.26,8.26 0 0 1 6.46,-4 12.06,12.06 0 0 1 7.82,1.78 z"
         class="cls-1"
         inkscape:connector-curvature="0"
         style="fill:#ff2935;stroke-width:6.22343397;stroke-miterlimit:4;stroke-dasharray:none" />
    </g>
    <text
       xml:space="preserve"
       style="font-style:normal;font-variant:normal;font-weight:normal;font-stretch:normal;font-size:10.58333302px;line-height:1.25;font-family:'Avenir LT 55 Roman';-inkscape-font-specification:'Avenir LT 55 Roman, ';letter-spacing:0px;word-spacing:0px;fill:#000000;fill-opacity:1;stroke:none;stroke-width:0.26458332;"
       x="346.80765"
       y="-37.366653"
       id="text1215"><tspan
         sodipodi:role="line"
         id="tspan1213"
         x="346.80765"
         y="-28.106237"
         style="stroke-width:0.26458332;-inkscape-font-specification:'Avenir LT 55 Roman, ';font-family:'Avenir LT 55 Roman';font-weight:normal;font-style:normal;font-stretch:normal;font-variant:normal;" /></text>
    <g
       aria-label="TO SIGNAL"
       style="font-style:normal;font-variant:normal;font-weight:normal;font-stretch:normal;font-size:10.58333302px;line-height:1.25;font-family:'Avenir LT 55 Roman';-inkscape-font-specification:'Avenir LT 55 Roman, ';letter-spacing:0px;word-spacing:0px;fill:#000000;fill-opacity:1;stroke:none;stroke-width:0.26458332"
       id="text856">
      <path
         d="m 345.50756,-44.368219 h -0.61242 v -0.310445 h 1.58044 v 0.310445 h -0.61242 v 1.687688 h -0.3556 z"
         style="font-style:normal;font-variant:normal;font-weight:600;font-stretch:normal;font-size:2.82222223px;font-family:'Avenir Next';-inkscape-font-specification:'Avenir Next Semi-Bold';opacity:0.76999996;stroke-width:0.26458332"
         id="path891" />
      <path
         d="m 346.52938,-43.685242 q 0,-0.239889 0.079,-0.4318 0.0818,-0.194733 0.22296,-0.3302 0.14393,-0.135466 0.33867,-0.208844 0.19755,-0.07338 0.42897,-0.07338 0.23425,0 0.4318,0.07338 0.19756,0.07338 0.34149,0.208844 0.14394,0.135467 0.22296,0.3302 0.0818,0.191911 0.0818,0.4318 0,0.234245 -0.0818,0.428978 -0.079,0.191911 -0.22296,0.333022 -0.14393,0.138289 -0.34149,0.217311 -0.19755,0.0762 -0.4318,0.0762 -0.23142,0 -0.42897,-0.0762 -0.19474,-0.07902 -0.33867,-0.217311 -0.14111,-0.141111 -0.22296,-0.333022 -0.079,-0.194733 -0.079,-0.428978 z m 0.38665,0 q 0,0.160867 0.048,0.296334 0.0508,0.132644 0.14112,0.231422 0.0931,0.09878 0.21731,0.155222 0.127,0.05362 0.2794,0.05362 0.1524,0 0.2794,-0.05362 0.127,-0.05644 0.21731,-0.155222 0.0931,-0.09878 0.14111,-0.231422 0.0508,-0.135467 0.0508,-0.296334 0,-0.155222 -0.0508,-0.287866 -0.048,-0.132645 -0.13829,-0.231423 -0.0903,-0.09878 -0.21731,-0.155222 -0.127,-0.05644 -0.28222,-0.05644 -0.15523,0 -0.28223,0.05644 -0.12417,0.05644 -0.21448,0.155222 -0.0903,0.09878 -0.14112,0.231423 -0.048,0.132644 -0.048,0.287866 z"
         style="font-style:normal;font-variant:normal;font-weight:600;font-stretch:normal;font-size:2.82222223px;font-family:'Avenir Next';-inkscape-font-specification:'Avenir Next Semi-Bold';opacity:0.76999996;stroke-width:0.26458332"
         id="path893" />
      <path
         d="m 350.7475,-44.260975 q -0.0564,-0.07338 -0.16086,-0.121356 -0.1016,-0.0508 -0.20603,-0.0508 -0.0621,0 -0.12417,0.01693 -0.0621,0.01411 -0.11289,0.04798 -0.0508,0.03104 -0.0847,0.08467 -0.031,0.0508 -0.031,0.124178 0,0.06773 0.0282,0.115711 0.0282,0.04798 0.0762,0.08185 0.0508,0.03387 0.12135,0.05927 0.0706,0.0254 0.15523,0.0508 0.096,0.03104 0.19755,0.07056 0.10442,0.03951 0.18909,0.104422 0.0875,0.06491 0.14111,0.163689 0.0564,0.09878 0.0564,0.245533 0,0.160867 -0.0593,0.282222 -0.0593,0.118534 -0.15805,0.197556 -0.0988,0.07902 -0.23142,0.118533 -0.13264,0.03951 -0.2794,0.03951 -0.19473,0 -0.381,-0.07055 -0.18626,-0.07338 -0.3048,-0.214489 l 0.254,-0.237067 q 0.0734,0.1016 0.19474,0.160867 0.12417,0.05927 0.24271,0.05927 0.0621,0 0.127,-0.01411 0.0649,-0.01693 0.11571,-0.05362 0.0536,-0.03669 0.0847,-0.09031 0.0339,-0.05644 0.0339,-0.138289 0,-0.07902 -0.0367,-0.129822 -0.0367,-0.05362 -0.0988,-0.09031 -0.0621,-0.03951 -0.14675,-0.06773 -0.0847,-0.02822 -0.1778,-0.05927 -0.0903,-0.02822 -0.18062,-0.06773 -0.0903,-0.03951 -0.16369,-0.104423 -0.0706,-0.06491 -0.11571,-0.158044 -0.0452,-0.09596 -0.0452,-0.237067 0,-0.1524 0.0621,-0.262466 0.0649,-0.110067 0.16651,-0.180623 0.10442,-0.07338 0.23425,-0.107244 0.13264,-0.03669 0.26811,-0.03669 0.1524,0 0.30762,0.05362 0.15804,0.05362 0.27375,0.160867 z"
         style="font-style:normal;font-variant:normal;font-weight:600;font-stretch:normal;font-size:2.82222223px;font-family:'Avenir Next';-inkscape-font-specification:'Avenir Next Semi-Bold';opacity:0.76999996;stroke-width:0.26458332"
         id="path895" />
      <path
         d="m 351.34925,-44.678664 h 0.3556 v 1.998133 h -0.3556 z"
         style="font-style:normal;font-variant:normal;font-weight:600;font-stretch:normal;font-size:2.82222223px;font-family:'Avenir Next';-inkscape-font-specification:'Avenir Next Semi-Bold';opacity:0.76999996;stroke-width:0.26458332"
         id="path897" />
      <path
         d="m 353.89278,-42.784953 q -0.1524,0.07338 -0.33584,0.112889 -0.18063,0.04233 -0.41769,0.04233 -0.24271,0 -0.44309,-0.0762 -0.20038,-0.07902 -0.34431,-0.217311 -0.14394,-0.141111 -0.22578,-0.333022 -0.079,-0.194733 -0.079,-0.428978 0,-0.239889 0.0818,-0.4318 0.0847,-0.194733 0.2286,-0.3302 0.14676,-0.135466 0.34431,-0.208844 0.19756,-0.07338 0.42898,-0.07338 0.23989,0 0.43744,0.07056 0.20038,0.06773 0.32174,0.180622 l -0.24554,0.265289 q -0.0762,-0.08467 -0.21448,-0.143934 -0.13547,-0.05927 -0.29634,-0.05927 -0.15804,0 -0.28786,0.05644 -0.127,0.05644 -0.21732,0.155222 -0.0903,0.09878 -0.14111,0.231423 -0.048,0.132644 -0.048,0.287866 0,0.160867 0.048,0.296334 0.0508,0.132644 0.14111,0.231422 0.0931,0.09878 0.22296,0.155222 0.13264,0.05362 0.29916,0.05362 0.2286,0 0.39793,-0.07055 v -0.508 h -0.42051 v -0.293511 h 0.76482 z"
         style="font-style:normal;font-variant:normal;font-weight:600;font-stretch:normal;font-size:2.82222223px;font-family:'Avenir Next';-inkscape-font-specification:'Avenir Next Semi-Bold';opacity:0.76999996;stroke-width:0.26458332"
         id="path899" />
      <path
         d="m 354.32581,-44.678664 h 0.47132 l 0.92851,1.495778 h 0.006 v -1.495778 h 0.3556 v 1.998133 h -0.45155 l -0.94827,-1.543755 h -0.006 v 1.543755 h -0.3556 z"
         style="font-style:normal;font-variant:normal;font-weight:600;font-stretch:normal;font-size:2.82222223px;font-family:'Avenir Next';-inkscape-font-specification:'Avenir Next Semi-Bold';opacity:0.76999996;stroke-width:0.26458332"
         id="path901" />
      <path
         d="m 357.1517,-44.678664 h 0.30762 l 0.86078,1.998133 h -0.4064 l -0.18627,-0.4572 h -0.86642 l -0.18062,0.4572 h -0.39794 z m 0.45155,1.236133 -0.30762,-0.8128 -0.31327,0.8128 z"
         style="font-style:normal;font-variant:normal;font-weight:600;font-stretch:normal;font-size:2.82222223px;font-family:'Avenir Next';-inkscape-font-specification:'Avenir Next Semi-Bold';opacity:0.76999996;stroke-width:0.26458332"
         id="path903" />
      <path
         d="m 358.51505,-44.678664 h 0.3556 v 1.682045 h 0.84949 v 0.316088 h -1.20509 z"
         style="font-style:normal;font-variant:normal;font-weight:600;font-stretch:normal;font-size:2.82222223px;font-family:'Avenir Next';-inkscape-font-specification:'Avenir Next Semi-Bold';opacity:0.76999996;stroke-width:0.26458332"
         id="path905" />
    </g>
    <text
       xml:space="preserve"
       style="font-style:normal;font-variant:normal;font-weight:normal;font-stretch:normal;font-size:10.58333302px;line-height:1.25;font-family:'revilo san';-inkscape-font-specification:'revilo san';letter-spacing:0px;word-spacing:0px;fill:#000000;fill-opacity:1;stroke:none;stroke-width:0.26458332"
       x="368.12238"
       y="-37.901196"
       id="text885"><tspan
         sodipodi:role="line"
         id="tspan883"
         x="368.12238"
         y="-28.640779"
         style="stroke-width:0.26458332" /></text>
    <g
       aria-label="FROM  SIGNAL"
       style="font-style:normal;font-variant:normal;font-weight:normal;font-stretch:normal;font-size:10.58333302px;line-height:1.25;font-family:'revilo san';-inkscape-font-specification:'revilo san';letter-spacing:0px;word-spacing:0px;fill:#000000;fill-opacity:1;stroke:none;stroke-width:0.26458332"
       id="text889">
      <path
         d="m 367.15299,-44.723269 h 1.28976 v 0.310444 h -0.93416 v 0.547511 h 0.88054 v 0.299156 h -0.88054 v 0.841022 h -0.3556 z"
         style="font-style:normal;font-variant:normal;font-weight:600;font-stretch:normal;font-size:2.82222223px;font-family:'Avenir Next';-inkscape-font-specification:'Avenir Next Semi-Bold';fill:#ffffff;stroke-width:0.26458332"
         id="path908" />
      <path
         d="m 368.76806,-44.723269 h 0.69426 q 0.14111,0 0.27376,0.03104 0.13264,0.02822 0.23424,0.09596 0.10442,0.06773 0.16651,0.1778 0.0621,0.110067 0.0621,0.268111 0,0.217311 -0.12418,0.3556 -0.12135,0.135467 -0.33302,0.183444 l 0.5334,0.886178 h -0.42898 l -0.46284,-0.846666 h -0.25964 v 0.846666 h -0.3556 z m 0.64628,0.860778 q 0.0762,0 0.1524,-0.01129 0.0762,-0.01129 0.13547,-0.04233 0.0621,-0.03104 0.1016,-0.08749 0.0395,-0.05927 0.0395,-0.149578 0,-0.08185 -0.0367,-0.132645 -0.0367,-0.05362 -0.0931,-0.08467 -0.0564,-0.03104 -0.12982,-0.04233 -0.0706,-0.01129 -0.13829,-0.01129 h -0.32173 v 0.561623 z"
         style="font-style:normal;font-variant:normal;font-weight:600;font-stretch:normal;font-size:2.82222223px;font-family:'Avenir Next';-inkscape-font-specification:'Avenir Next Semi-Bold';fill:#ffffff;stroke-width:0.26458332"
         id="path910" />
      <path
         d="m 370.44701,-43.729847 q 0,-0.239889 0.079,-0.4318 0.0818,-0.194733 0.22295,-0.3302 0.14393,-0.135467 0.33867,-0.208844 0.19755,-0.07338 0.42898,-0.07338 0.23424,0 0.4318,0.07338 0.19755,0.07338 0.34148,0.208844 0.14394,0.135467 0.22296,0.3302 0.0818,0.191911 0.0818,0.4318 0,0.234245 -0.0818,0.428978 -0.079,0.191911 -0.22296,0.333022 -0.14393,0.138289 -0.34148,0.217311 -0.19756,0.0762 -0.4318,0.0762 -0.23143,0 -0.42898,-0.0762 -0.19474,-0.07902 -0.33867,-0.217311 -0.14111,-0.141111 -0.22295,-0.333022 -0.079,-0.194733 -0.079,-0.428978 z m 0.38665,0 q 0,0.160867 0.048,0.296333 0.0508,0.132645 0.14111,0.231423 0.0931,0.09878 0.21731,0.155222 0.127,0.05362 0.2794,0.05362 0.1524,0 0.2794,-0.05362 0.127,-0.05644 0.21731,-0.155222 0.0931,-0.09878 0.14111,-0.231423 0.0508,-0.135466 0.0508,-0.296333 0,-0.155222 -0.0508,-0.287867 -0.048,-0.132644 -0.13829,-0.231422 -0.0903,-0.09878 -0.21731,-0.155222 -0.127,-0.05644 -0.28222,-0.05644 -0.15522,0 -0.28222,0.05644 -0.12418,0.05644 -0.21449,0.155222 -0.0903,0.09878 -0.14111,0.231422 -0.048,0.132645 -0.048,0.287867 z"
         style="font-style:normal;font-variant:normal;font-weight:600;font-stretch:normal;font-size:2.82222223px;font-family:'Avenir Next';-inkscape-font-specification:'Avenir Next Semi-Bold';fill:#ffffff;stroke-width:0.26458332"
         id="path912" />
      <path
         d="m 372.94075,-44.723269 h 0.55598 l 0.51929,1.419578 h 0.008 l 0.51364,-1.419578 h 0.5588 v 1.998133 h -0.35278 v -1.605844 h -0.006 l -0.60678,1.605844 h -0.24835 l -0.59831,-1.605844 h -0.006 v 1.605844 h -0.33867 z"
         style="font-style:normal;font-variant:normal;font-weight:600;font-stretch:normal;font-size:2.82222223px;font-family:'Avenir Next';-inkscape-font-specification:'Avenir Next Semi-Bold';fill:#ffffff;stroke-width:0.26458332"
         id="path914" />
      <path
         d="m 377.96691,-44.30558 q -0.0564,-0.07338 -0.16086,-0.121356 -0.1016,-0.0508 -0.20603,-0.0508 -0.0621,0 -0.12417,0.01693 -0.0621,0.01411 -0.11289,0.04798 -0.0508,0.03104 -0.0847,0.08467 -0.031,0.0508 -0.031,0.124178 0,0.06773 0.0282,0.115711 0.0282,0.04798 0.0762,0.08184 0.0508,0.03387 0.12135,0.05927 0.0706,0.0254 0.15523,0.0508 0.096,0.03104 0.19755,0.07056 0.10442,0.03951 0.18909,0.104422 0.0875,0.06491 0.14111,0.163689 0.0564,0.09878 0.0564,0.245533 0,0.160867 -0.0593,0.282222 -0.0593,0.118534 -0.15805,0.197556 -0.0988,0.07902 -0.23142,0.118533 -0.13264,0.03951 -0.2794,0.03951 -0.19473,0 -0.381,-0.07056 -0.18626,-0.07338 -0.3048,-0.214489 l 0.254,-0.237067 q 0.0734,0.1016 0.19474,0.160867 0.12417,0.05927 0.24271,0.05927 0.0621,0 0.127,-0.01411 0.0649,-0.01693 0.11571,-0.05362 0.0536,-0.03669 0.0847,-0.09031 0.0339,-0.05644 0.0339,-0.138289 0,-0.07902 -0.0367,-0.129822 -0.0367,-0.05362 -0.0988,-0.09031 -0.0621,-0.03951 -0.14675,-0.06773 -0.0847,-0.02822 -0.1778,-0.05927 -0.0903,-0.02822 -0.18062,-0.06773 -0.0903,-0.03951 -0.16369,-0.104422 -0.0706,-0.06491 -0.11571,-0.158044 -0.0452,-0.09596 -0.0452,-0.237067 0,-0.1524 0.0621,-0.262467 0.0649,-0.110066 0.16651,-0.180622 0.10442,-0.07338 0.23425,-0.107244 0.13264,-0.03669 0.26811,-0.03669 0.1524,0 0.30762,0.05362 0.15804,0.05362 0.27375,0.160867 z"
         style="font-style:normal;font-variant:normal;font-weight:600;font-stretch:normal;font-size:2.82222223px;font-family:'Avenir Next';-inkscape-font-specification:'Avenir Next Semi-Bold';fill:#ffffff;stroke-width:0.26458332"
         id="path916" />
      <path
         d="m 378.56866,-44.723269 h 0.3556 v 1.998133 h -0.3556 z"
         style="font-style:normal;font-variant:normal;font-weight:600;font-stretch:normal;font-size:2.82222223px;font-family:'Avenir Next';-inkscape-font-specification:'Avenir Next Semi-Bold';fill:#ffffff;stroke-width:0.26458332"
         id="path918" />
      <path
         d="m 381.11219,-42.829558 q -0.1524,0.07338 -0.33584,0.112889 -0.18063,0.04233 -0.41769,0.04233 -0.24271,0 -0.44309,-0.0762 -0.20038,-0.07902 -0.34431,-0.217311 -0.14394,-0.141111 -0.22578,-0.333022 -0.079,-0.194733 -0.079,-0.428978 0,-0.239889 0.0818,-0.4318 0.0847,-0.194733 0.2286,-0.3302 0.14676,-0.135467 0.34431,-0.208844 0.19756,-0.07338 0.42898,-0.07338 0.23989,0 0.43745,0.07055 0.20037,0.06773 0.32173,0.180623 l -0.24553,0.265289 q -0.0762,-0.08467 -0.21449,-0.143934 -0.13547,-0.05927 -0.29634,-0.05927 -0.15804,0 -0.28786,0.05644 -0.127,0.05644 -0.21731,0.155222 -0.0903,0.09878 -0.14112,0.231422 -0.048,0.132645 -0.048,0.287867 0,0.160867 0.048,0.296333 0.0508,0.132645 0.14112,0.231423 0.0931,0.09878 0.22295,0.155222 0.13265,0.05362 0.29916,0.05362 0.2286,0 0.39793,-0.07056 v -0.508 h -0.42051 v -0.293512 h 0.76482 z"
         style="font-style:normal;font-variant:normal;font-weight:600;font-stretch:normal;font-size:2.82222223px;font-family:'Avenir Next';-inkscape-font-specification:'Avenir Next Semi-Bold';fill:#ffffff;stroke-width:0.26458332"
         id="path920" />
      <path
         d="m 381.54523,-44.723269 h 0.47131 l 0.92851,1.495778 h 0.006 v -1.495778 h 0.3556 v 1.998133 h -0.45155 l -0.94827,-1.543755 h -0.006 v 1.543755 h -0.3556 z"
         style="font-style:normal;font-variant:normal;font-weight:600;font-stretch:normal;font-size:2.82222223px;font-family:'Avenir Next';-inkscape-font-specification:'Avenir Next Semi-Bold';fill:#ffffff;stroke-width:0.26458332"
         id="path922" />
      <path
         d="m 384.37111,-44.723269 h 0.30762 l 0.86078,1.998133 h -0.4064 l -0.18627,-0.4572 h -0.86642 l -0.18062,0.4572 h -0.39794 z m 0.45155,1.236133 -0.30762,-0.8128 -0.31327,0.8128 z"
         style="font-style:normal;font-variant:normal;font-weight:600;font-stretch:normal;font-size:2.82222223px;font-family:'Avenir Next';-inkscape-font-specification:'Avenir Next Semi-Bold';fill:#ffffff;stroke-width:0.26458332"
         id="path924" />
      <path
         d="m 385.73446,-44.723269 h 0.3556 v 1.682044 h 0.84949 v 0.316089 h -1.20509 z"
         style="font-style:normal;font-variant:normal;font-weight:600;font-stretch:normal;font-size:2.82222223px;font-family:'Avenir Next';-inkscape-font-specification:'Avenir Next Semi-Bold';fill:#ffffff;stroke-width:0.26458332"
         id="path926" />
    </g>
  </g>
</svg>
