<?xml version="1.0" encoding="UTF-8" standalone="no"?>
<!-- Created with Inkscape (http://www.inkscape.org/) -->

<svg
   xmlns:dc="http://purl.org/dc/elements/1.1/"
   xmlns:cc="http://creativecommons.org/ns#"
   xmlns:rdf="http://www.w3.org/1999/02/22-rdf-syntax-ns#"
   xmlns:svg="http://www.w3.org/2000/svg"
   xmlns="http://www.w3.org/2000/svg"
   xmlns:sodipodi="http://sodipodi.sourceforge.net/DTD/sodipodi-0.dtd"
   xmlns:inkscape="http://www.inkscape.org/namespaces/inkscape"
   width="50.799999mm"
   height="128.4993mm"
   viewBox="0 0 50.799999 128.4993"
   version="1.1"
   id="svg48736"
   inkscape:version="0.92.2 5c3e80d, 2017-08-06"
   sodipodi:docname="PhysicalSync.svg">
  <defs
     id="defs48730">
    <style
       id="style307">.cls-1{fill:#ff2935;}</style>
  </defs>
  <sodipodi:namedview
     id="base"
     pagecolor="#ffffff"
     bordercolor="#666666"
     borderopacity="1.0"
     inkscape:pageopacity="0.0"
     inkscape:pageshadow="2"
     inkscape:zoom="3.959798"
     inkscape:cx="86.726364"
     inkscape:cy="438.40536"
     inkscape:document-units="mm"
     inkscape:current-layer="Rouge"
     showgrid="false"
     fit-margin-top="0"
     fit-margin-left="0"
     fit-margin-right="0"
     fit-margin-bottom="0"
     inkscape:snap-bbox="true"
     inkscape:bbox-nodes="true"
     inkscape:window-width="1350"
     inkscape:window-height="797"
     inkscape:window-x="7"
     inkscape:window-y="12"
     inkscape:window-maximized="0"
     inkscape:snap-page="true"
     showguides="false"
     inkscape:guide-bbox="true">
    <sodipodi:guide
       position="31.117339,86.432725"
       orientation="0,1"
       id="guide1190"
       inkscape:locked="false" />
  </sodipodi:namedview>
  <metadata
     id="metadata48733">
    <rdf:RDF>
      <cc:Work
         rdf:about="">
        <dc:format>image/svg+xml</dc:format>
        <dc:type
           rdf:resource="http://purl.org/dc/dcmitype/StillImage" />
        <dc:title />
      </cc:Work>
    </rdf:RDF>
  </metadata>
  <g
     inkscape:label="Layer 1"
     inkscape:groupmode="layer"
     id="layer1"
     transform="translate(-339.725,84.74965)"
     style="display:inline">
    <path
       inkscape:connector-curvature="0"
       id="path40442"
       d="m 339.8187,-84.657321 h 50.61397 V 43.65595 H 339.8187 Z m 0,0"
       style="fill:#e6e6e6;fill-opacity:1;fill-rule:nonzero;stroke:none;stroke-width:0.35277775" />
    <path
       inkscape:connector-curvature="0"
       id="path40444"
       d="m 390.525,-84.74965 h -50.8 v 128.4993 h 50.8 z M 390.33896,43.56224 H 339.91241 V -84.563613 h 50.42655 z m 0,0"
       style="fill:#ababab;fill-opacity:1;fill-rule:nonzero;stroke:none;stroke-width:0.35277775" />
    <path
       inkscape:connector-curvature="0"
       id="path44538"
       d="m 388.23745,-44.889892 c 0,-0.54984 -0.45062,-0.99908 -1.00045,-0.99908 h -20.33984 c -0.54984,0 -1.00046,0.44924 -1.00046,0.99908 v 83.61109 c 0,0.54983 0.45062,0.99908 1.00046,0.99908 H 387.237 c 0.54983,0 1.00045,-0.44925 1.00045,-0.99908 z"
       style="fill:#000000;fill-opacity:1;fill-rule:nonzero;stroke:none;stroke-width:0.35277775"
       sodipodi:nodetypes="sssssssss" />
    <path
       inkscape:connector-curvature="0"
       style="fill:#ffd714;fill-opacity:1;stroke:none;stroke-width:0.35277775"
       d=""
       id="path47866" />
    <path
       inkscape:connector-curvature="0"
       style="fill:#ffd714;fill-opacity:1;stroke:none;stroke-width:0.35277775"
       d=""
       id="path47814" />
    <path
       inkscape:connector-curvature="0"
       style="fill:#ffd714;fill-opacity:1;stroke:none;stroke-width:0.35277775"
       d=""
       id="path47770" />
    <path
       inkscape:connector-curvature="0"
       style="fill:#ffd714;fill-opacity:1;stroke:none;stroke-width:0.35277775"
       d=""
       id="path47726" />
    <path
       inkscape:connector-curvature="0"
       style="fill:#ffd714;fill-opacity:1;stroke:none;stroke-width:0.35277775"
       d=""
       id="path47690" />
    <path
       inkscape:connector-curvature="0"
       style="fill:#ffd714;fill-opacity:1;stroke:none;stroke-width:0.35277775"
       d=""
       id="path47662" />
    <path
       inkscape:connector-curvature="0"
       style="fill:#ffd714;fill-opacity:1;stroke:none;stroke-width:0.35277775"
       d=""
       id="path47630" />
    <g
       id="Rouge"
       transform="matrix(0.01400578,0,0,0.01400578,351.90537,-84.099608)">
      <path
         id="path313"
         d="M 840.7,174 921.91,314.65 840.7,455.3 H 678.3 L 597.09,314.65 678.3,174 h 162.4 m 11.55,-20 H 666.75 L 574,314.65 666.75,475.3 h 185.5 L 945,314.65 Z"
         class="cls-1"
         inkscape:connector-curvature="0"
         style="fill:#ff2935;stroke-width:6.22343397;stroke-miterlimit:4;stroke-dasharray:none" />
      <path
         id="path315"
         d="m 759,226 a 89,89 0 1 1 -89,89 89.11,89.11 0 0 1 89,-89 m 0,-20 A 109,109 0 1 0 868,315 109,109 0 0 0 759,206 Z"
         class="cls-1"
         inkscape:connector-curvature="0"
         style="fill:#ff2935;stroke-width:6.22343397;stroke-miterlimit:4;stroke-dasharray:none" />
      <path
         id="path317"
         d="m 495.17,163.29 v 301.49 a 9.45,9.45 0 0 1 -2.9,6.92 10.79,10.79 0 0 1 -14.72,0 9.44,9.44 0 0 1 -2.89,-6.92 V 189.6 l -136,150.3 v 0.45 c -0.3,0 -0.45,0.08 -0.45,0.22 0,0.14 -0.15,0.23 -0.45,0.23 v 0.44 c -0.3,0 -0.74,0.3 -1.33,0.89 -0.3,0 -0.45,0.08 -0.45,0.23 0,0.15 -0.15,0.22 -0.45,0.22 -0.3,0 -0.44,0.08 -0.44,0.22 0,0.14 -0.16,0.23 -0.45,0.23 h -0.89 a 1.28,1.28 0 0 1 -0.89,0.44 h -3.12 a 1.28,1.28 0 0 1 -0.9,-0.44 h -0.89 c -0.3,0 -0.44,-0.07 -0.44,-0.23 0,-0.16 -0.16,-0.22 -0.45,-0.22 -0.29,0 -0.45,-0.07 -0.45,-0.22 0,-0.15 -0.15,-0.23 -0.44,-0.23 -0.6,-0.59 -1.05,-0.89 -1.34,-0.89 v -0.44 c -0.3,0 -0.45,-0.07 -0.45,-0.23 0,-0.16 -0.15,-0.22 -0.44,-0.22 v -0.45 l -136,-150.3 v 275.18 a 9.45,9.45 0 0 1 -2.9,6.92 10.79,10.79 0 0 1 -14.72,0 9.42,9.42 0 0 1 -2.9,-6.92 V 162.84 a 7.92,7.92 0 0 1 0.89,-3.57 c 0.3,0 0.45,-0.29 0.45,-0.89 a 28,28 0 0 0 0.89,-0.89 L 170,157 l 0.89,-0.89 0.45,-0.44 h 0.44 c 0,-0.3 0.07,-0.45 0.22,-0.45 0.15,0 0.23,-0.15 0.23,-0.45 h 0.44 l 0.45,-0.44 h 0.89 a 0.4,0.4 0 0 0 0.45,-0.45 h 1.78 v -0.44 h 1.79 a 4.36,4.36 0 0 0 2,0.44 2.81,2.81 0 0 1 2,0.89 1.34,1.34 0 0 1 0.89,0.45 1.3,1.3 0 0 1 0.89,0.45 l 0.45,0.44 h 0.45 c 0,0.3 0.07,0.45 0.22,0.45 0.15,0 0.22,0.15 0.22,0.44 L 331,318.94 477.33,157 c 0,-0.29 0.07,-0.44 0.22,-0.44 0.15,0 0.23,-0.15 0.23,-0.45 0.29,0 0.44,-0.07 0.44,-0.22 0,-0.15 0.15,-0.22 0.45,-0.22 a 1.26,1.26 0 0 1 0.89,-0.45 1.3,1.3 0 0 1 0.89,-0.45 v -0.44 a 4,4 0 0 1 1.79,-0.45 3.93,3.93 0 0 0 1.78,-0.44 h 2.23 v 0.44 H 488 v 0.45 h 1.33 c 0,0.3 0.15,0.44 0.45,0.44 h 0.45 c 0,0.3 0.06,0.45 0.22,0.45 0.16,0 0.22,0.15 0.22,0.45 a 1.32,1.32 0 0 1 0.89,0.44 l 0.9,0.89 0.44,0.45 v 0.45 c 0.29,0 0.45,0.07 0.45,0.22 0,0.15 0.14,0.22 0.44,0.22 0,0.6 0.15,0.89 0.45,0.89 a 8,8 0 0 1 0.89,3.57 z"
         class="cls-1"
         inkscape:connector-curvature="0"
         style="fill:#ff2935;stroke-width:6.22343397;stroke-miterlimit:4;stroke-dasharray:none" />
      <path
         id="path319"
         d="m 1039.48,473.8 a 9.8,9.8 0 0 1 -7.15,-3.13 9.31,9.31 0 0 1 -3.13,-6.69 V 161.6 a 10.7,10.7 0 0 1 10.28,-10.26 l 76.4,1.34 a 164.08,164.08 0 0 1 32.17,3.12 178.57,178.57 0 0 1 31.27,9.36 186.21,186.21 0 0 1 27.26,14.72 151.69,151.69 0 0 1 24.13,19.63 157,157 0 0 1 34.85,175.28 149.2,149.2 0 0 1 -34.85,50.84 151.08,151.08 0 0 1 -24.13,19.62 184.33,184.33 0 0 1 -27.26,14.75 177.76,177.76 0 0 1 -31.27,9.37 164.08,164.08 0 0 1 -32.17,3.12 z m 10.24,-302.39 v 281.87 l 66.31,-0.89 a 140,140 0 0 0 55.19,-10.94 142.9,142.9 0 0 0 75.65,-74.6 133,133 0 0 0 11.13,-54.28 134.62,134.62 0 0 0 -11.13,-54.5 142.2,142.2 0 0 0 -75.65,-74.82 A 139.83,139.83 0 0 0 1116,172.3 Z"
         class="cls-1"
         inkscape:connector-curvature="0"
         style="fill:#ff2935;stroke-width:11.5263176;stroke-miterlimit:4;stroke-dasharray:none" />
      <path
         id="path321"
         d="m 1385.34,474.69 a 9.32,9.32 0 0 1 -7.21,-3.12 9.8,9.8 0 0 1 -2.83,-6.69 v -301.5 a 9.8,9.8 0 0 1 2.83,-6.69 9.32,9.32 0 0 1 7.21,-3.12 10.17,10.17 0 0 1 10.47,9.81 v 301.5 a 10.17,10.17 0 0 1 -10.47,9.81 z"
         class="cls-1"
         inkscape:connector-curvature="0"
         style="fill:#ff2935;stroke-width:6.22343397;stroke-miterlimit:4;stroke-dasharray:none" />
      <path
         id="path323"
         d="m 1743.1,155.7 a 10.26,10.26 0 0 1 4.24,6.47 9.29,9.29 0 0 1 -2,7.36 l -119.09,160.56 v 135.14 a 9.31,9.31 0 0 1 -3.19,6.69 9.72,9.72 0 0 1 -6.84,3.12 9.93,9.93 0 0 1 -7.53,-3.12 9.57,9.57 0 0 1 -3,-6.69 V 330.09 L 1486.2,169.53 a 11.09,11.09 0 0 1 -1.78,-7.36 9.32,9.32 0 0 1 4,-6.47 12.06,12.06 0 0 1 7.81,-1.78 8.33,8.33 0 0 1 6.47,4 l 113.51,152.53 112.61,-152.53 a 8.26,8.26 0 0 1 6.46,-4 12.06,12.06 0 0 1 7.82,1.78 z"
         class="cls-1"
         inkscape:connector-curvature="0"
         style="fill:#ff2935;stroke-width:6.22343397;stroke-miterlimit:4;stroke-dasharray:none" />
    </g>
    <g
       aria-label="SEND"
       style="font-style:normal;font-variant:normal;font-weight:normal;font-stretch:normal;font-size:3.52777767px;line-height:1.25;font-family:'revilo san';-inkscape-font-specification:'revilo san';letter-spacing:0px;word-spacing:0px;fill:#000000;fill-opacity:1;stroke:none;stroke-width:0.26458332"
       id="text1167"
       transform="translate(0,-0.1288439)">
      <path
         d="m 349.75994,-44.238459 q -0.0564,-0.08185 -0.1524,-0.118534 -0.0931,-0.03951 -0.19755,-0.03951 -0.0621,0 -0.12136,0.01411 -0.0564,0.01411 -0.10442,0.04516 -0.0452,0.03104 -0.0734,0.08184 -0.0282,0.04798 -0.0282,0.115711 0,0.1016 0.0706,0.155223 0.0706,0.05362 0.17497,0.09313 0.10443,0.03951 0.2286,0.0762 0.12418,0.03669 0.2286,0.1016 0.10443,0.06491 0.17498,0.172155 0.0706,0.107245 0.0706,0.285045 0,0.160867 -0.0593,0.282222 -0.0593,0.118533 -0.16087,0.197556 -0.0988,0.07902 -0.23142,0.118533 -0.13264,0.03951 -0.2794,0.03951 -0.18626,0 -0.35842,-0.06209 -0.17216,-0.06209 -0.29633,-0.208844 l 0.26811,-0.259645 q 0.0649,0.09878 0.16933,0.155223 0.10725,0.05362 0.22578,0.05362 0.0621,0 0.12418,-0.01693 0.0621,-0.01693 0.11289,-0.0508 0.0508,-0.03387 0.0818,-0.08467 0.031,-0.05362 0.031,-0.121356 0,-0.110066 -0.0706,-0.169333 -0.0706,-0.05927 -0.17498,-0.09878 -0.10442,-0.04233 -0.2286,-0.07902 -0.12418,-0.03669 -0.2286,-0.09878 -0.10442,-0.06491 -0.17498,-0.169333 -0.0705,-0.107245 -0.0705,-0.285045 0,-0.155222 0.0621,-0.268111 0.0649,-0.112889 0.16651,-0.186266 0.10442,-0.0762 0.23706,-0.112889 0.13265,-0.03669 0.27094,-0.03669 0.15804,0 0.3048,0.04798 0.14958,0.04798 0.26811,0.158044 z"
         style="font-style:normal;font-variant:normal;font-weight:bold;font-stretch:normal;font-size:2.82222223px;font-family:'Avenir LT 55 Roman';-inkscape-font-specification:'Avenir LT 55 Roman,  Bold';stroke-width:0.26458332"
         id="path1257"
         inkscape:connector-curvature="0" />
      <path
         d="m 350.40121,-44.667437 h 1.32362 v 0.321733 h -0.96802 v 0.491067 h 0.91722 v 0.321733 h -0.91722 v 0.541867 h 1.01882 v 0.321733 h -1.37442 z"
         style="font-style:normal;font-variant:normal;font-weight:bold;font-stretch:normal;font-size:2.82222223px;font-family:'Avenir LT 55 Roman';-inkscape-font-specification:'Avenir LT 55 Roman,  Bold';stroke-width:0.26458332"
         id="path1259"
         inkscape:connector-curvature="0" />
      <path
         d="m 352.12651,-44.667437 h 0.47131 l 0.96802,1.484489 0.006,0.0056 h -0.006 l 0.006,-0.0056 v -1.484489 h 0.3556 v 1.998133 h -0.45156 l -0.98778,-1.532467 h -0.006 v 1.532467 h -0.3556 z"
         style="font-style:normal;font-variant:normal;font-weight:bold;font-stretch:normal;font-size:2.82222223px;font-family:'Avenir LT 55 Roman';-inkscape-font-specification:'Avenir LT 55 Roman,  Bold';stroke-width:0.26458332"
         id="path1261"
         inkscape:connector-curvature="0" />
      <path
         d="m 354.99636,-42.991037 q 0.16651,0 0.31326,-0.03669 0.14958,-0.03951 0.25965,-0.118533 0.11007,-0.08185 0.17215,-0.208845 0.0649,-0.129822 0.0649,-0.313267 0,-0.180622 -0.0564,-0.310444 -0.0564,-0.129822 -0.15804,-0.208844 -0.0988,-0.08185 -0.23707,-0.118534 -0.13547,-0.03951 -0.29916,-0.03951 h -0.32455 v 1.354667 z m -0.62089,-1.6764 h 0.7874 q 0.19755,0 0.381,0.06209 0.18344,0.05927 0.32455,0.183444 0.14112,0.124178 0.22578,0.313267 0.0847,0.186266 0.0847,0.440266 0,0.256823 -0.0988,0.445912 -0.0959,0.186266 -0.25118,0.310444 -0.1524,0.121356 -0.34149,0.183444 -0.18626,0.05927 -0.36688,0.05927 h -0.74507 z"
         style="font-style:normal;font-variant:normal;font-weight:bold;font-stretch:normal;font-size:2.82222223px;font-family:'Avenir LT 55 Roman';-inkscape-font-specification:'Avenir LT 55 Roman,  Bold';stroke-width:0.26458332"
         id="path1263"
         inkscape:connector-curvature="0" />
    </g>
    <text
       xml:space="preserve"
       style="font-style:normal;font-variant:normal;font-weight:normal;font-stretch:normal;font-size:10.58333302px;line-height:1.25;font-family:'revilo san';-inkscape-font-specification:'revilo san';letter-spacing:0px;word-spacing:0px;fill:#000000;fill-opacity:1;stroke:none;stroke-width:0.26458332"
       x="346.80765"
       y="-37.366653"
       id="text1215"><tspan
         sodipodi:role="line"
         id="tspan1213"
         x="346.80765"
         y="-28.106237"
         style="stroke-width:0.26458332" /></text>
    <g
       aria-label="RECEIVE"
       style="font-style:normal;font-variant:normal;font-weight:normal;font-stretch:normal;font-size:10.58333302px;line-height:1.25;font-family:'revilo san';-inkscape-font-specification:'revilo san';letter-spacing:0px;word-spacing:0px;fill:#000000;fill-opacity:1;stroke:none;stroke-width:0.26458332"
       id="text1219"
       transform="translate(0,-0.1288439)">
      <path
         d="m 372.00369,-43.885342 q 0.0762,0 0.1524,-0.0056 0.0762,-0.0085 0.13829,-0.03387 0.0649,-0.02822 0.10442,-0.08185 0.0395,-0.05644 0.0395,-0.155222 0,-0.08749 -0.0367,-0.141111 -0.0367,-0.05362 -0.096,-0.07902 -0.0593,-0.02822 -0.13264,-0.03669 -0.0706,-0.0085 -0.13829,-0.0085 h -0.30762 v 0.541867 z m -0.63217,-0.846667 h 0.69426 q 0.14394,0 0.27658,0.02822 0.13547,0.0254 0.23989,0.09031 0.10442,0.06491 0.16651,0.174977 0.0621,0.110067 0.0621,0.2794 0,0.217312 -0.12136,0.364067 -0.11853,0.146756 -0.34149,0.1778 l 0.53058,0.883356 h -0.42898 l -0.46284,-0.846667 h -0.25964 v 0.846667 h -0.3556 z"
         style="font-style:normal;font-variant:normal;font-weight:bold;font-stretch:normal;font-size:2.82222223px;font-family:'Avenir LT 55 Roman';-inkscape-font-specification:'Avenir LT 55 Roman, Bold';fill:#ffffff;fill-opacity:1;stroke-width:0.26458332"
         id="path1242"
         inkscape:connector-curvature="0" />
      <path
         d="m 373.15194,-44.732009 h 1.32362 v 0.321734 h -0.96802 v 0.491066 h 0.91722 v 0.321734 h -0.91722 v 0.541866 h 1.01882 v 0.321734 h -1.37442 z"
         style="font-style:normal;font-variant:normal;font-weight:bold;font-stretch:normal;font-size:2.82222223px;font-family:'Avenir LT 55 Roman';-inkscape-font-specification:'Avenir LT 55 Roman, Bold';fill:#ffffff;fill-opacity:1;stroke-width:0.26458332"
         id="path1244"
         inkscape:connector-curvature="0" />
      <path
         d="m 376.24884,-44.26352 q -0.11006,-0.118533 -0.21448,-0.158044 -0.1016,-0.03951 -0.20603,-0.03951 -0.15522,0 -0.28222,0.05644 -0.12418,0.05362 -0.21449,0.1524 -0.0903,0.09596 -0.14111,0.225778 -0.048,0.129822 -0.048,0.2794 0,0.160867 0.048,0.296333 0.0508,0.135467 0.14111,0.234245 0.0903,0.09878 0.21449,0.155222 0.127,0.05644 0.28222,0.05644 0.12136,0 0.23425,-0.05644 0.11571,-0.05927 0.21449,-0.186267 l 0.29351,0.208845 q -0.13547,0.186266 -0.3302,0.270933 -0.19474,0.08467 -0.41487,0.08467 -0.23142,0 -0.42615,-0.07338 -0.19192,-0.0762 -0.33303,-0.211667 -0.13829,-0.138289 -0.21731,-0.3302 -0.079,-0.191911 -0.079,-0.426155 0,-0.239889 0.079,-0.434623 0.079,-0.197555 0.21731,-0.335844 0.14111,-0.138289 0.33303,-0.211667 0.19473,-0.0762 0.42615,-0.0762 0.2032,0 0.37536,0.07338 0.17497,0.07056 0.32455,0.242711 z"
         style="font-style:normal;font-variant:normal;font-weight:bold;font-stretch:normal;font-size:2.82222223px;font-family:'Avenir LT 55 Roman';-inkscape-font-specification:'Avenir LT 55 Roman, Bold';fill:#ffffff;fill-opacity:1;stroke-width:0.26458332"
         id="path1246"
         inkscape:connector-curvature="0" />
      <path
         d="m 376.81201,-44.732009 h 1.32362 v 0.321734 h -0.96802 v 0.491066 h 0.91722 v 0.321734 h -0.91722 v 0.541866 h 1.01882 v 0.321734 h -1.37442 z"
         style="font-style:normal;font-variant:normal;font-weight:bold;font-stretch:normal;font-size:2.82222223px;font-family:'Avenir LT 55 Roman';-inkscape-font-specification:'Avenir LT 55 Roman, Bold';fill:#ffffff;fill-opacity:1;stroke-width:0.26458332"
         id="path1248"
         inkscape:connector-curvature="0" />
      <path
         d="m 378.52885,-44.732009 h 0.3556 v 1.998134 h -0.3556 z"
         style="font-style:normal;font-variant:normal;font-weight:bold;font-stretch:normal;font-size:2.82222223px;font-family:'Avenir LT 55 Roman';-inkscape-font-specification:'Avenir LT 55 Roman, Bold';fill:#ffffff;fill-opacity:1;stroke-width:0.26458332"
         id="path1250"
         inkscape:connector-curvature="0" />
      <path
         d="m 379.08862,-44.732009 h 0.40922 l 0.54469,1.509889 0.56162,-1.509889 h 0.38382 l -0.80715,1.998134 h -0.30763 z"
         style="font-style:normal;font-variant:normal;font-weight:bold;font-stretch:normal;font-size:2.82222223px;font-family:'Avenir LT 55 Roman';-inkscape-font-specification:'Avenir LT 55 Roman, Bold';fill:#ffffff;fill-opacity:1;stroke-width:0.26458332"
         id="path1252"
         inkscape:connector-curvature="0" />
      <path
         d="m 381.2052,-44.732009 h 1.32362 v 0.321734 h -0.96802 v 0.491066 h 0.91722 v 0.321734 h -0.91722 v 0.541866 h 1.01882 v 0.321734 h -1.37442 z"
         style="font-style:normal;font-variant:normal;font-weight:bold;font-stretch:normal;font-size:2.82222223px;font-family:'Avenir LT 55 Roman';-inkscape-font-specification:'Avenir LT 55 Roman, Bold';fill:#ffffff;fill-opacity:1;stroke-width:0.26458332"
         id="path1254"
         inkscape:connector-curvature="0" />
    </g>
  </g>
</svg>
