<svg xmlns="http://www.w3.org/2000/svg" viewBox="0 0 1920 630"><defs><style>.cls-1{fill:#fff;}</style></defs><title>logo-white</title><g id="Blanc"><path class="cls-1" d="M849.7,174l81.21,140.65L849.7,455.3H687.3L606.09,314.65,687.3,174H849.7m11.55-20H675.75L583,314.65,675.75,475.3h185.5L954,314.65,861.25,154Z"/><path class="cls-1" d="M768,226a89,89,0,1,1-89,89,89.11,89.11,0,0,1,89-89m0-20A109,109,0,1,0,877,315,109,109,0,0,0,768,206Z"/><path class="cls-1" d="M504.17,163.29V464.78a9.45,9.45,0,0,1-2.9,6.92,10.79,10.79,0,0,1-14.72,0,9.44,9.44,0,0,1-2.89-6.92V189.6l-136,150.3v.45c-.29,0-.44.08-.44.22s-.15.23-.45.23v.44c-.3,0-.74.3-1.33.89-.3,0-.45.08-.45.23s-.15.22-.45.22-.44.08-.44.22-.16.23-.45.23h-.89a1.28,1.28,0,0,1-.89.44h-3.12a1.28,1.28,0,0,1-.9-.44h-.89c-.3,0-.45-.07-.45-.23s-.15-.22-.44-.22-.45-.07-.45-.22-.15-.23-.44-.23c-.6-.59-1.05-.89-1.34-.89v-.44c-.3,0-.45-.07-.45-.23s-.15-.22-.44-.22v-.45l-136-150.3V464.78a9.45,9.45,0,0,1-2.9,6.92,10.79,10.79,0,0,1-14.72,0,9.42,9.42,0,0,1-2.9-6.92V162.84a7.92,7.92,0,0,1,.89-3.57c.3,0,.45-.29.45-.89a28,28,0,0,0,.89-.89L179,157l.89-.89.45-.44h.44c0-.3.07-.45.22-.45s.23-.15.23-.45h.44l.45-.44h.89a.4.4,0,0,0,.45-.45h1.78v-.44h1.79a4.36,4.36,0,0,0,2,.44,2.81,2.81,0,0,1,2,.89,1.34,1.34,0,0,1,.89.45,1.3,1.3,0,0,1,.89.45l.45.44h.45c0,.3.07.45.22.45s.22.15.22.44L340,318.94,486.33,157c0-.29.07-.44.22-.44s.23-.15.23-.45c.29,0,.44-.07.44-.22s.15-.22.45-.22a1.26,1.26,0,0,1,.89-.45,1.3,1.3,0,0,1,.89-.45v-.44a4,4,0,0,1,1.79-.45,3.93,3.93,0,0,0,1.78-.44h2.23v.44H497v.45h1.33c0,.3.15.44.45.44h.45c0,.3.06.45.22.45s.22.15.22.45a1.32,1.32,0,0,1,.89.44l.9.89.44.45v.45c.29,0,.45.07.45.22s.14.22.44.22c0,.6.15.89.45.89a8,8,0,0,1,.89,3.57Z"/><path class="cls-1" d="M1048.47,473.8a9.8,9.8,0,0,1-7.14-3.13,9.31,9.31,0,0,1-3.13-6.69V161.6a10.7,10.7,0,0,1,10.27-10.26l76.41,1.34a164.08,164.08,0,0,1,32.17,3.12,178.57,178.57,0,0,1,31.27,9.36,186.21,186.21,0,0,1,27.26,14.72,151.69,151.69,0,0,1,24.13,19.63,157,157,0,0,1,34.85,175.28,149.2,149.2,0,0,1-34.85,50.84,151.08,151.08,0,0,1-24.13,19.62A184.33,184.33,0,0,1,1188.32,460a177.76,177.76,0,0,1-31.27,9.37,164.08,164.08,0,0,1-32.17,3.12Zm10.25-302.39V453.28l66.31-.89a140,140,0,0,0,55.19-10.94,142.9,142.9,0,0,0,75.65-74.6A133,133,0,0,0,1267,312.57a134.62,134.62,0,0,0-11.13-54.5,142.2,142.2,0,0,0-75.65-74.82A139.83,139.83,0,0,0,1125,172.3Z"/><path class="cls-1" d="M1394.34,474.69a9.32,9.32,0,0,1-7.21-3.12,9.8,9.8,0,0,1-2.83-6.69V163.38a9.8,9.8,0,0,1,2.83-6.69,9.32,9.32,0,0,1,7.21-3.12,10.17,10.17,0,0,1,10.47,9.81v301.5a10.17,10.17,0,0,1-10.47,9.81Z"/><path class="cls-1" d="M1752.1,155.7a10.26,10.26,0,0,1,4.24,6.47,9.29,9.29,0,0,1-2,7.36L1635.25,330.09V465.23a9.31,9.31,0,0,1-3.19,6.69,9.72,9.72,0,0,1-6.84,3.12,9.93,9.93,0,0,1-7.53-3.12,9.57,9.57,0,0,1-3-6.69V330.09L1495.2,169.53a11.09,11.09,0,0,1-1.78-7.36,9.32,9.32,0,0,1,4-6.47,12.06,12.06,0,0,1,7.81-1.78,8.33,8.33,0,0,1,6.47,4l113.51,152.53,112.61-152.53a8.26,8.26,0,0,1,6.46-4A12.06,12.06,0,0,1,1752.1,155.7Z"/></g></svg>